0
SECTION
2
HEADER
9
$INSUNITS
70
4
9
$ACADVER
1
AC1014
9
$HANDSEED
5
FFFF
0
ENDSEC
0
SECTION
2
TABLES
0
TABLE
2
VPORT
5
8
100
AcDbSymbolTable
0
ENDTAB
0
TABLE
2
LTYPE
5
5
100
AcDbSymbolTable
0
LTYPE
5
14
100
AcDbSymbolTableRecord
100
AcDbLinetypeTableRecord
2
BYBLOCK
70
0
0
LTYPE
5
15
100
AcDbSymbolTableRecord
100
AcDbLinetypeTableRecord
2
BYLAYER
70
0
0
LTYPE
5
16
100
AcDbSymbolTableRecord
100
AcDbLinetypeTableRecord
2
DASHED
70
0
3
Dashed __ __ __ __ __ __ __ __ __ __ __ __ __ _
72
65
73
2
40
0.75
49
0.5
74
0
49
-0.25
74
0
0
ENDTAB
0
TABLE
2
LAYER
5
2
100
AcDbSymbolTable
70
3
0
LAYER
5
50
100
AcDbSymbolTableRecord
100
AcDbLayerTableRecord
2
1
70
0
62
7
6
DASHED
0
LAYER
5
51
100
AcDbSymbolTableRecord
100
AcDbLayerTableRecord
2
0
70
0
62
7
6
CONTINUOUS
0
ENDTAB
0
TABLE
2
STYLE
5
3
100
AcDbSymbolTable
70
1
0
STYLE
5
11
100
AcDbSymbolTableRecord
100
AcDbTextStyleTableRecord
2
STANDARD
70
0
0
ENDTAB
0
TABLE
2
VIEW
5
6
100
AcDbSymbolTable
70
0
0
ENDTAB
0
TABLE
2
UCS
5
7
100
AcDbSymbolTable
70
0
0
ENDTAB
0
TABLE
2
APPID
5
9
100
AcDbSymbolTable
70
2
0
APPID
5
12
100
AcDbSymbolTableRecord
100
AcDbRegAppTableRecord
2
ACAD
70
0
0
ENDTAB
0
TABLE
2
DIMSTYLE
5
A
100
AcDbSymbolTable
70
1
0
ENDTAB
0
TABLE
2
BLOCK_RECORD
5
1
100
AcDbSymbolTable
70
1
0
BLOCK_RECORD
5
1F
100
AcDbSymbolTableRecord
100
AcDbBlockTableRecord
2
*MODEL_SPACE
0
BLOCK_RECORD
5
1B
100
AcDbSymbolTableRecord
100
AcDbBlockTableRecord
2
*PAPER_SPACE
0
ENDTAB
0
ENDSEC
0
SECTION
2
BLOCKS
0
BLOCK
5
20
100
AcDbEntity
100
AcDbBlockBegin
2
*MODEL_SPACE
0
ENDBLK
5
21
100
AcDbEntity
100
AcDbBlockEnd
0
BLOCK
5
1C
100
AcDbEntity
100
AcDbBlockBegin
2
*PAPER_SPACE
0
ENDBLK
5
1D
100
AcDbEntity
100
AcDbBlockEnd
0
ENDSEC
0
SECTION
2
ENTITIES
0
LWPOLYLINE
5
100
100
AcDbEntity
8
0
100
AcDbPolyline
90
4
70
1
43
0.0
10
15.593273702968709
20
5.1379042798761887
10
4.8874316769867265
20
5.1379042798761887
10
4.8874316769867292
20
8.4826537120396459
10
15.593273702968709
20
8.4826537120396459
0
CIRCLE
5
101
100
AcDbEntity
8
0
100
AcDbCircle
10
-39.479728805291785
20
-14.305263717522473
30
0
40
0.50000000000000711
210
0
220
0
230
1
0
CIRCLE
5
102
100
AcDbEntity
8
0
100
AcDbCircle
10
-9.6620651103078359
20
18.036714386036689
30
0
40
0.69535111245544456
210
0
220
-0
230
1
0
CIRCLE
5
103
100
AcDbEntity
8
0
100
AcDbCircle
10
55.055585030593889
20
-11.081659217903351
30
0
40
0.67781411489852061
210
0
220
-0
230
1
0
CIRCLE
5
104
100
AcDbEntity
8
0
100
AcDbCircle
10
54.277691821915717
20
-8.011586517093054
30
0
40
0.69483392427541091
210
0
220
-0
230
1
0
CIRCLE
5
105
100
AcDbEntity
8
0
100
AcDbCircle
10
51.766819708205141
20
-5.5341926982319656
30
0
40
0.71276539852473064
210
0
220
-0
230
1
0
CIRCLE
5
106
100
AcDbEntity
8
0
100
AcDbCircle
10
59.546673626064944
20
-11.126570103858061
30
0
40
0.71877151047104348
210
0
220
-0
230
1
0
CIRCLE
5
107
100
AcDbEntity
8
0
100
AcDbCircle
10
-18.407346403681881
20
6.7528462898326964
30
0
40
0.70288979120954664
210
0
220
-0
230
1
0
CIRCLE
5
108
100
AcDbEntity
8
0
100
AcDbCircle
10
49.276034571404338
20
-5.5408883572018652
30
0
40
0.66705029925280712
210
0
220
-0
230
1
0
CIRCLE
5
109
100
AcDbEntity
8
0
100
AcDbCircle
10
46.791945093573339
20
-5.5074100623523892
30
0
40
0.67321487825109827
210
0
220
-0
230
1
0
CIRCLE
5
110
100
AcDbEntity
8
0
100
AcDbCircle
10
-18.388879385071419
20
11.812809389102817
30
0
40
0.68060116392489423
210
0
220
-0
230
1
0
CIRCLE
5
111
100
AcDbEntity
8
0
100
AcDbCircle
10
-18.407346403681899
20
9.2643608208572807
30
0
40
0.70134878679901635
210
0
220
-0
230
1
0
CIRCLE
5
112
100
AcDbEntity
8
0
100
AcDbCircle
10
-14.691952256575807
20
2.9010722526101773
30
0
40
0.65660876268706758
210
0
220
-0
230
1
0
CIRCLE
5
113
100
AcDbEntity
8
0
100
AcDbCircle
10
-4.666795555991623
20
2.9010722526101773
30
0
40
0.68426495961466216
210
0
220
-0
230
1
0
CIRCLE
5
114
100
AcDbEntity
8
0
100
AcDbCircle
10
-3.902226021761166
20
5.9470876652795948
30
0
40
0.68700267702460849
210
0
220
-0
230
1
0
CIRCLE
5
115
100
AcDbEntity
8
0
100
AcDbCircle
10
59.539294449985277
20
-17.666212738255251
30
0
40
0.76901072313120267
210
0
220
-0
230
1
0
CIRCLE
5
116
100
AcDbEntity
8
0
100
AcDbCircle
10
55.058530047207825
20
-17.632164376532018
30
0
40
0.7323168624374965
210
0
220
-0
230
1
0
CIRCLE
5
117
100
AcDbEntity
8
0
100
AcDbCircle
10
54.295539127326435
20
-20.68405711121029
30
0
40
0.73494529380900175
210
0
220
-0
230
1
0
CIRCLE
5
118
100
AcDbEntity
8
0
100
AcDbCircle
10
44.31242090947832
20
-20.700938579996119
30
0
40
0.7402840954905443
210
0
220
-0
230
1
0
CIRCLE
5
119
100
AcDbEntity
8
0
100
AcDbCircle
10
40.591046990359416
20
-16.844598579906091
30
0
40
0.64900262121387442
210
0
220
-0
230
1
0
CIRCLE
5
120
100
AcDbEntity
8
0
100
AcDbCircle
10
40.581300649336271
20
-14.318027717281254
30
0
40
0.66867343921732214
210
0
220
-0
230
1
0
CIRCLE
5
121
100
AcDbEntity
8
0
100
AcDbCircle
10
40.596766982935137
20
-11.812481674260827
30
0
40
0.63891122706850823
210
0
220
-0
230
1
0
CIRCLE
5
122
100
AcDbEntity
8
0
100
AcDbCircle
10
44.27270768205608
20
-7.9676157718037555
30
0
40
0.70527309576174702
210
0
220
-0
230
1
0
CIRCLE
5
123
100
AcDbEntity
8
0
100
AcDbCircle
10
65.163472380954616
20
9.9978072987922388
30
0
40
1.1017965571419808
210
0
220
-0
230
1
0
CIRCLE
5
124
100
AcDbEntity
8
0
100
AcDbCircle
10
57.653328646619514
20
12.771200937993864
30
0
40
1.140443964418445
210
0
220
-0
230
1
0
CIRCLE
5
125
100
AcDbEntity
8
0
100
AcDbCircle
10
65.222030287604738
20
-21.805549415210848
30
0
40
1.4399708296298996
210
0
220
-0
230
1
0
LWPOLYLINE
5
126
100
AcDbEntity
8
0
100
AcDbPolyline
90
4
70
1
43
0.0
10
49.061568921677825
20
-16.469448587455066
10
50.741929130500282
20
-16.469448587455066
10
50.741929130500282
20
-19.415534667858076
10
49.061568921677825
20
-19.415534667858076
0
CIRCLE
5
127
100
AcDbEntity
8
0
100
AcDbCircle
10
-37.209356425764
20
12.84249752944211
30
0
40
1.1294625589744278
210
0
220
-0
230
1
0
LWPOLYLINE
5
128
100
AcDbEntity
8
0
100
AcDbPolyline
90
4
70
1
43
0.0
10
-30.289772543545812
20
-16.38863492293153
10
-28.515589709417934
20
-16.38863492293153
10
-28.515589709417934
20
-19.415534667858076
10
-30.289772543545812
20
-19.415534667858076
0
CIRCLE
5
129
100
AcDbEntity
8
0
100
AcDbCircle
10
-4.6625124836229404
20
15.665273879058423
30
0
40
0.76691262133161686
210
0
220
-0
230
1
0
CIRCLE
5
130
100
AcDbEntity
8
0
100
AcDbCircle
10
-3.8780886467498199
20
12.547247908331292
30
0
40
0.67257748201186018
210
0
220
-0
230
1
0
CIRCLE
5
131
100
AcDbEntity
8
0
100
AcDbCircle
10
-44.778198097197368
20
-21.741927133828696
30
0
40
1.3985513283105799
210
0
220
-0
230
1
0
CIRCLE
5
132
100
AcDbEntity
8
0
100
AcDbCircle
10
-44.758471698017139
20
10.058730590970942
30
0
40
1.1040589341908991
210
0
220
-0
230
1
0
CIRCLE
5
133
100
AcDbEntity
8
0
100
AcDbCircle
10
0.58971455878431556
20
5.966905050193767
30
0
40
0.68350030010710938
210
0
220
-0
230
1
0
CIRCLE
5
134
100
AcDbEntity
8
0
100
AcDbCircle
10
0.60292614872706096
20
12.533065251755797
30
0
40
0.70431529960352179
210
0
220
-0
230
1
0
CIRCLE
5
135
100
AcDbEntity
8
0
100
AcDbCircle
10
-14.676298355201265
20
15.647425698848592
30
0
40
0.73318081978040794
210
0
220
-0
230
1
0
CIRCLE
5
136
100
AcDbEntity
8
0
100
AcDbCircle
10
-12.156089739948026
20
18.036714386036689
30
0
40
0.68718219670298453
210
0
220
-0
230
1
0
CIRCLE
5
137
100
AcDbEntity
8
0
100
AcDbCircle
10
-7.1287645022481705
20
18.030168389633431
30
0
40
0.67565671149663942
210
0
220
-0
230
1
0
LWPOLYLINE
5
138
100
AcDbEntity
8
0
100
AcDbPolyline
90
61
70
1
43
0.0
10
67.200399688539477
20
-19.105088376888318
42
0.11277895806337386
10
67.548659948789947
20
-20.910542883977094
42
-0.0027889195313751105
10
67.896920209040999
20
-21.712733029385014
42
-0.39257672766551283
10
66.164783651477961
20
-24.53061664184769
42
-0.42991507048348376
10
62.124012786811974
20
-22.72575424465305
42
0.2478721947941431
10
61.024329913256651
20
-21.517930936167041
10
55.399955487033417
20
-21.546253425934012
42
0.23164776049881849
10
54.551595215999043
20
-21.966890797464824
42
-0.16054432672756586
10
53.555631844421718
20
-22.635930492767322
10
40.508676525534582
20
-22.701630645443217
42
-0.31364295641271711
10
39.177037044206848
20
-21.187322261695787
10
39.177037044206841
20
-2.2785168364740853
42
0.33853342761790423
10
38.078424885423004
20
-0.8418701672952289
10
25.792983148253796
20
-0.84187016729522868
10
25.792983148253764
20
2.3905848383572006
42
1.0399989879830471
10
24.694370989469974
20
2.5596020935547092
10
24.694370989469974
20
-0.8418701672952289
10
4.0003208062245399
20
-0.8418701672952289
10
4.0003208062245239
20
2.5701656720045492
42
0.73637830225120626
10
2.7010006568936618
20
2.570165672004554
10
2.7010006568936618
20
-0.8418701672952289
10
-18.880390116138699
20
-0.84187016729522468
42
0.33269341545513437
10
-19.979002274922539
20
-2.3102075718236259
10
-19.979002274922543
20
-12.831531707868782
42
0.29298365621139355
10
-19.490344561947278
20
-13.593880745900044
42
-0.21660594058516322
10
-19.049407371336198
20
-14.563958573643278
10
-19.049407371336198
20
-21.388030252242846
42
-0.31714326708760388
10
-20.348727520667076
20
-22.592278195525122
10
-32.86656798373285
20
-22.592278195525108
42
-0.15191319051568089
10
-34.025386028098524
20
-21.982454262305797
42
0.16934674346958228
10
-34.926465781452535
20
-21.388030252242842
10
-40.535725938319978
20
-21.388030252242849
42
0.2618420510755663
10
-41.87431319600428
20
-22.865021460598115
42
-0.44363274311514372
10
-45.7925887180823
20
-24.489118661915896
42
-0.22713821240738491
10
-47.655189905335149
20
-22.194939484467426
10
-47.652402250741204
20
-21.605052578520407
42
0.32194837962664935
10
-47.693573914203284
20
-16.713277924600309
10
-47.693573914203313
20
10.82591273602902
42
-0.20076630024361711
10
-46.871112536092028
20
12.09940132149165
10
-26.468764156492817
20
19.448491700098895
42
-0.089773960090147834
10
-26.016771927392721
20
19.61130294517136
10
-18.049027762082055
20
19.611302945171349
42
0.36339417090885345
10
-16.610015681410903
20
20.816284359568048
10
-16.610015681410903
20
24.977085004251713
42
-0.34353001621489748
10
-13.847112486522111
20
27.71531942061468
10
4.6037554305077339
20
27.71531942061468
42
-0.17693965462432579
10
5.2583848963119495
20
27.15561320662691
42
0.39168335645951224
10
5.8607236722696321
20
26.598253199416266
10
14.6486654314843
20
26.598253199416281
42
0.37336435925031647
10
15.291018516012858
20
27.155613206626906
42
-0.27264695572932623
10
15.981485205076638
20
27.715319420614676
10
34.250868443098724
20
27.715319420614684
42
-0.33624798944998124
10
37.530544652831637
20
25.228594497642185
10
37.530544652831622
20
20.67520442366876
42
0.19069608392984863
10
38.998586071368621
20
19.548382673800152
10
46.236768767708597
20
19.548382673800152
42
-0.1339180836638027
10
46.743902587197397
20
19.410073450303212
10
67.144513052996345
20
12.033581530466266
42
-0.30168883957572451
10
67.87063647635533
20
11.053891197362933
10
68.008945699852262
20
-16.412015435404918
42
-0.16642270587008789
10
67.75944905367885
20
-17.152997970745847
42
0.19008602412961995
0
ENDSEC
0
SECTION
2
OBJECTS
0
DICTIONARY
5
C
100
AcDbDictionary
3
ACAD_GROUP
350
D
3
ACAD_MLINESTYLE
350
17
0
DICTIONARY
5
D
100
AcDbDictionary
0
DICTIONARY
5
1A
330
C
100
AcDbDictionary
0
DICTIONARY
5
17
100
AcDbDictionary
0
ENDSEC
0
EOF
