0
SECTION
2
HEADER
9
$INSUNITS
70
4
9
$ACADVER
1
AC1014
9
$HANDSEED
5
FFFF
0
ENDSEC
0
SECTION
2
TABLES
0
TABLE
2
VPORT
5
8
100
AcDbSymbolTable
0
ENDTAB
0
TABLE
2
LTYPE
5
5
100
AcDbSymbolTable
0
LTYPE
5
14
100
AcDbSymbolTableRecord
100
AcDbLinetypeTableRecord
2
BYBLOCK
70
0
0
LTYPE
5
15
100
AcDbSymbolTableRecord
100
AcDbLinetypeTableRecord
2
BYLAYER
70
0
0
LTYPE
5
16
100
AcDbSymbolTableRecord
100
AcDbLinetypeTableRecord
2
DASHED
70
0
3
Dashed __ __ __ __ __ __ __ __ __ __ __ __ __ _
72
65
73
2
40
0.75
49
0.5
74
0
49
-0.25
74
0
0
ENDTAB
0
TABLE
2
LAYER
5
2
100
AcDbSymbolTable
70
3
0
LAYER
5
50
100
AcDbSymbolTableRecord
100
AcDbLayerTableRecord
2
1
70
0
62
7
6
DASHED
0
LAYER
5
51
100
AcDbSymbolTableRecord
100
AcDbLayerTableRecord
2
0
70
0
62
7
6
CONTINUOUS
0
ENDTAB
0
TABLE
2
STYLE
5
3
100
AcDbSymbolTable
70
1
0
STYLE
5
11
100
AcDbSymbolTableRecord
100
AcDbTextStyleTableRecord
2
STANDARD
70
0
0
ENDTAB
0
TABLE
2
VIEW
5
6
100
AcDbSymbolTable
70
0
0
ENDTAB
0
TABLE
2
UCS
5
7
100
AcDbSymbolTable
70
0
0
ENDTAB
0
TABLE
2
APPID
5
9
100
AcDbSymbolTable
70
2
0
APPID
5
12
100
AcDbSymbolTableRecord
100
AcDbRegAppTableRecord
2
ACAD
70
0
0
ENDTAB
0
TABLE
2
DIMSTYLE
5
A
100
AcDbSymbolTable
70
1
0
ENDTAB
0
TABLE
2
BLOCK_RECORD
5
1
100
AcDbSymbolTable
70
1
0
BLOCK_RECORD
5
1F
100
AcDbSymbolTableRecord
100
AcDbBlockTableRecord
2
*MODEL_SPACE
0
BLOCK_RECORD
5
1B
100
AcDbSymbolTableRecord
100
AcDbBlockTableRecord
2
*PAPER_SPACE
0
ENDTAB
0
ENDSEC
0
SECTION
2
BLOCKS
0
BLOCK
5
20
100
AcDbEntity
100
AcDbBlockBegin
2
*MODEL_SPACE
0
ENDBLK
5
21
100
AcDbEntity
100
AcDbBlockEnd
0
BLOCK
5
1C
100
AcDbEntity
100
AcDbBlockBegin
2
*PAPER_SPACE
0
ENDBLK
5
1D
100
AcDbEntity
100
AcDbBlockEnd
0
ENDSEC
0
SECTION
2
ENTITIES
0
LWPOLYLINE
5
100
100
AcDbEntity
8
0
100
AcDbPolyline
90
4
70
1
43
0.0
10
15.593273702968709
20
5.1379042798761887
10
4.8874316769867265
20
5.1379042798761887
10
4.8874316769867292
20
8.4826537120396459
10
15.593273702968709
20
8.4826537120396459
0
CIRCLE
5
101
100
AcDbEntity
8
0
100
AcDbCircle
10
-13.955651796316751
20
-24.80760150656311
30
0
40
0.50550232217250635
210
0
220
-0
230
1
0
CIRCLE
5
102
100
AcDbEntity
8
0
100
AcDbCircle
10
-13.489261327533864
20
-5.8333893950483144
30
0
40
0.76997622783393282
210
0
220
-0
230
1
0
CIRCLE
5
103
100
AcDbEntity
8
0
100
AcDbCircle
10
-16.464911846080874
20
-5.8463835021162049
30
0
40
0.76267771024482567
210
0
220
-0
230
1
0
CIRCLE
5
104
100
AcDbEntity
8
0
100
AcDbCircle
10
-11.990181828536137
20
-15.005208295851236
30
0
40
0.74987851472421374
210
0
220
-0
230
1
0
CIRCLE
5
105
100
AcDbEntity
8
0
100
AcDbCircle
10
-9.6250386069857736
20
-25.993728110700424
30
0
40
0.54776578858761305
210
0
220
-0
230
1
0
CIRCLE
5
106
100
AcDbEntity
8
0
100
AcDbCircle
10
28.850184849136262
20
-14.945383660843154
30
0
40
1.0675253002289109
210
0
220
-0
230
1
0
CIRCLE
5
107
100
AcDbEntity
8
0
100
AcDbCircle
10
-14.518888389838301
20
-22.072432021585186
30
0
40
0.65045731059628187
210
0
220
-0
230
1
0
CIRCLE
5
108
100
AcDbEntity
8
0
100
AcDbCircle
10
-9.7494395455657248
20
-8.2221959622238234
30
0
40
1.1555933079879899
210
0
220
-0
230
1
0
CIRCLE
5
109
100
AcDbEntity
8
0
100
AcDbCircle
10
30.007471672871326
20
-10.531731153770835
30
0
40
1.1031421550149467
210
0
220
-0
230
1
0
CIRCLE
5
110
100
AcDbEntity
8
0
100
AcDbCircle
10
-7.8150498150492718
20
-23.881310811756808
30
0
40
0.65749568934215685
210
0
220
-0
230
1
0
CIRCLE
5
111
100
AcDbEntity
8
0
100
AcDbCircle
10
-8.6493642186370963
20
-14.952068550493093
30
0
40
1.1528440171922094
210
0
220
-0
230
1
0
CIRCLE
5
112
100
AcDbEntity
8
0
100
AcDbCircle
10
10.140096665600751
20
-5.7810753413874485
30
0
40
0.50000000000000044
210
0
220
-0
230
1
0
CIRCLE
5
113
100
AcDbEntity
8
0
100
AcDbCircle
10
21.089814445225947
20
-14.300852198264177
30
0
40
0.49999999999999822
210
0
220
-0
230
1
0
CIRCLE
5
114
100
AcDbEntity
8
0
100
AcDbCircle
10
-0.91747477003594979
20
-14.275731970331258
30
0
40
0.49999999999999956
210
0
220
-0
230
1
0
CIRCLE
5
115
100
AcDbEntity
8
0
100
AcDbCircle
10
10.073342816871257
20
-29.927309929670901
30
0
40
0.50000000000000044
210
0
220
-0
230
1
0
CIRCLE
5
116
100
AcDbEntity
8
0
100
AcDbCircle
10
-18.579384347061982
20
-14.292575131006782
30
0
40
0.50000000000000044
210
0
220
-0
230
1
0
CIRCLE
5
117
100
AcDbEntity
8
0
100
AcDbCircle
10
-28.854259710450066
20
-3.9911180283988257
30
0
40
0.49999999999999822
210
0
220
-0
230
1
0
CIRCLE
5
118
100
AcDbEntity
8
0
100
AcDbCircle
10
-28.676906900133524
20
-24.61940940664612
30
0
40
0.50000000000000266
210
0
220
-0
230
1
0
CIRCLE
5
119
100
AcDbEntity
8
0
100
AcDbCircle
10
10.174126753116665
20
2.2221870564733108
30
0
40
1.0486031023536388
210
0
220
-0
230
1
0
LWPOLYLINE
5
120
100
AcDbEntity
8
0
100
AcDbPolyline
90
16
70
1
43
0.0
10
0.48282368932421743
20
13.707877871016789
42
0.12984859247592168
10
0.34076709972708674
20
14.245663531634518
10
-4.5804790398879733
20
19.268378663818964
42
0.20525770195463597
10
-5.3617902826722341
20
19.603226339297933
10
-14.31135542729179
20
19.60322633929793
42
0.13902238426577654
10
-14.849141087909516
20
19.308966260846724
10
-19.689212033469072
20
14.550070509342671
42
0.18878261287581385
10
-19.942884514892533
20
13.880375158384744
10
-19.841415522323146
20
4.7278720286264209
42
0.1565937346779088
10
-19.648624436441317
20
4.1494987709809417
10
-15.346339151499491
20
-0.041170622134566494
42
0.20423208827428666
10
-15.031785274534403
20
-0.16293341321782506
10
-4.3268065584645266
20
-0.16293341321782506
42
0.1837228170122851
10
-3.6063767112219081
20
0.11103286671950485
10
0.23908233584809058
20
4.0589133411933069
42
0.22805097806514957
10
0.48282368932421632
20
4.5655216405154109
0
CIRCLE
5
121
100
AcDbEntity
8
0
100
AcDbCircle
10
51.02625355393436
20
14.488592156516532
30
0
40
1.119778857554232
210
0
220
-0
230
1
0
CIRCLE
5
122
100
AcDbEntity
8
0
100
AcDbCircle
10
-30.575618923748106
20
14.433859157583345
30
0
40
1.1372220860733728
210
0
220
-0
230
1
0
LWPOLYLINE
5
123
100
AcDbEntity
8
0
100
AcDbPolyline
90
4
70
1
43
0.0
10
-20.734152495057341
20
-29.066582091571355
42
0.99999999999999989
10
-20.734152495057351
20
-28.511847839348885
10
-21.924146939341021
20
-28.511847839348885
42
0.99999999999999989
10
-21.924146939341021
20
-29.066582091571355
0
CIRCLE
5
124
100
AcDbEntity
8
0
100
AcDbCircle
10
30.132723826657543
20
20.27252782186121
30
0
40
0.49999999999999822
210
0
220
-0
230
1
0
LWPOLYLINE
5
125
100
AcDbEntity
8
0
100
AcDbPolyline
90
4
70
1
43
0.0
10
-18.980476471902442
20
-22.195035225331754
42
0.91348923226037726
10
-18.980476471902442
20
-22.803453437446713
10
-17.835218660862509
20
-22.80345343744672
42
0.99999999999999989
10
-17.835218660862509
20
-22.19503522533175
0
CIRCLE
5
126
100
AcDbEntity
8
0
100
AcDbCircle
10
19.586396462343266
20
9.7820758333619509
30
0
40
0.50000000000000044
210
0
220
-0
230
1
0
CIRCLE
5
127
100
AcDbEntity
8
0
100
AcDbCircle
10
29.961495547550953
20
-0.7457434384729611
30
0
40
0.49999999999999822
210
0
220
-0
230
1
0
CIRCLE
5
128
100
AcDbEntity
8
0
100
AcDbCircle
10
40.588350619603816
20
9.7740939591382876
30
0
40
0.49999999999999822
210
0
220
-0
230
1
0
CIRCLE
5
129
100
AcDbEntity
8
0
100
AcDbCircle
10
39.122260835327239
20
18.821048400133094
30
0
40
0.73490183918704322
210
0
220
-0
230
1
0
CIRCLE
5
130
100
AcDbEntity
8
0
100
AcDbCircle
10
-28.692677946088111
20
-14.237514004765623
30
0
40
1.137132445755209
210
0
220
-0
230
1
0
SPLINE
5
131
100
AcDbEntity
8
0
100
AcDbSpline
70
6
71
5
72
71
73
65
74
0
42
0.000000001
43
0.0000000001
44
0.0000000001
40
-1
40
-1
40
-1
40
-1
40
-1
40
-1
40
-0.98333333333333472
40
-0.96666666666666801
40
-0.95000000000000129
40
-0.93333333333333457
40
-0.91666666666666785
40
-0.90000000000000113
40
-0.88333333333333441
40
-0.8666666666666677
40
-0.85000000000000098
40
-0.83333333333333426
40
-0.81666666666666754
40
-0.80000000000000082
40
-0.7833333333333341
40
-0.76666666666666738
40
-0.75000000000000067
40
-0.73333333333333395
40
-0.71666666666666723
40
-0.70000000000000051
40
-0.68333333333333379
40
-0.66666666666666707
40
-0.65000000000000036
40
-0.63333333333333364
40
-0.61666666666666692
40
-0.6000000000000002
40
-0.58333333333333348
40
-0.56666666666666676
40
-0.55000000000000004
40
-0.53333333333333333
40
-0.51666666666666661
40
-0.49999999999999994
40
-0.48333333333333328
40
-0.46666666666666662
40
-0.44999999999999996
40
-0.43333333333333329
40
-0.41666666666666663
40
-0.39999999999999997
40
-0.3833333333333333
40
-0.36666666666666664
40
-0.34999999999999998
40
-0.33333333333333331
40
-0.31666666666666665
40
-0.29999999999999999
40
-0.28333333333333333
40
-0.26666666666666666
40
-0.24999999999999997
40
-0.23333333333333331
40
-0.21666666666666665
40
-0.19999999999999998
40
-0.18333333333333332
40
-0.16666666666666666
40
-0.14999999999999999
40
-0.13333333333333333
40
-0.11666666666666665
40
-0.099999999999999992
40
-0.083333333333333329
40
-0.066666666666666666
40
-0.050000000000000003
40
-0.033333333333333333
40
-0.016666666666666666
40
0
40
0
40
0
40
0
40
0
40
0
41
1
41
1
41
1
41
1
41
1
41
1
41
1
41
1
41
1
41
1
41
1
41
1
41
1
41
1
41
1
41
1
41
1
41
1
41
1
41
1
41
1
41
1
41
1
41
1
41
1
41
1
41
1
41
1
41
1
41
1
41
1
41
1
41
1
41
1
41
1
41
1
41
1
41
1
41
1
41
1
41
1
41
1
41
1
41
1
41
1
41
1
41
1
41
1
41
1
41
1
41
1
41
1
41
1
41
1
41
1
41
1
41
1
41
1
41
1
41
1
41
1
41
1
41
1
41
1
41
1
10
14.689160990685696
20
-16.979659283788948
30
0
10
14.703033564943166
20
-17.086479425491106
30
0
10
14.727791515501723
20
-17.303112906168963
30
0
10
14.756720136024422
20
-17.636218188571753
30
0
10
14.780598537334217
20
-18.091004808892539
30
0
10
14.785533282125304
20
-18.656650815168597
30
0
10
14.762114772405761
20
-19.197819562598013
30
0
10
14.705620304706095
20
-19.697302336583746
30
0
10
14.611715110044145
20
-20.147493732020063
30
0
10
14.478292211517843
20
-20.556449039363915
30
0
10
14.304972399207292
20
-20.941446265791825
30
0
10
14.092355172439721
20
-21.320983079522293
30
0
10
13.841423434085225
20
-21.708118689279431
30
0
10
13.552733498994613
20
-22.101334721469495
30
0
10
13.226476153738888
20
-22.486243432782857
30
0
10
12.86295717821506
20
-22.842603053937793
30
0
10
12.462948605818854
20
-23.149678726931626
30
0
10
12.028092119479076
20
-23.392239409663489
30
0
10
11.561289302656775
20
-23.566421165069261
30
0
10
11.066660577695963
20
-23.676024453867033
30
0
10
10.549497939557984
20
-23.728490793946246
30
0
10
10.016214196924613
20
-23.731196067346861
30
0
10
9.4743162940579815
20
-23.687180244348237
30
0
10
8.9323094918930437
20
-23.592429126447701
30
0
10
8.3993101057238579
20
-23.439408222591233
30
0
10
7.8847020416480031
20
-23.219693376986022
30
0
10
7.3977774089181372
20
-22.926907497843668
30
0
10
6.9473823937473576
20
-22.559633176842489
30
0
10
6.5415630066634254
20
-22.124049059776901
30
0
10
6.1872049782333036
20
-21.631420024980347
30
0
10
5.8896906156378384
20
-21.095958715187336
30
0
10
5.6525076568404291
20
-20.532456173391033
30
0
10
5.4769618676036291
20
-19.954235592793658
30
0
10
5.3616219680782704
20
-19.370412730348789
30
0
10
5.3028336968872729
20
-18.785886977711634
30
0
10
5.2959905952248629
20
-18.203275350280421
30
0
10
5.3366032690721781
20
-17.624298680637438
30
0
10
5.421399683736686
20
-17.051333979727787
30
0
10
5.5495336736681811
20
-16.489030821396618
30
0
10
5.7233945847691441
20
-15.945505327130927
30
0
10
5.9466925257990075
20
-15.430477120164097
30
0
10
6.2228571425435906
20
-14.953759635704778
30
0
10
6.5532913522743463
20
-14.523592584795784
30
0
10
6.9357381983918023
20
-14.145089879900761
30
0
10
7.3624429265637259
20
-13.818494231876141
30
0
10
7.822381096876537
20
-13.541189621971238
30
0
10
8.3036663860122797
20
-13.309878605376165
30
0
10
8.7959113266147266
20
-13.122717446500236
30
0
10
9.2925599485646373
20
-12.98142270710839
30
0
10
9.7933738419824774
20
-12.893525477289662
30
0
10
10.301492519730358
20
-12.869399240764389
30
0
10
10.820261264857002
20
-12.919061771484522
30
0
10
11.350242032993943
20
-13.049154541938675
30
0
10
11.885921240399631
20
-13.259622594979032
30
0
10
12.413183509910608
20
-13.541147754547453
30
0
10
12.91342872872313
20
-13.87914853910538
30
0
10
13.367017297143306
20
-14.257105586218144
30
0
10
13.757121449808064
20
-14.660306526539397
30
0
10
14.073056864684832
20
-15.079027781236348
30
0
10
14.314754895971753
20
-15.512961690981829
30
0
10
14.490592242774811
20
-15.9683441485501
30
0
10
14.588742667805615
20
-16.356025548989866
30
0
10
14.64455606995692
20
-16.662192055955966
30
0
10
14.675288416428229
20
-16.872839142086772
30
0
10
14.689160990685696
20
-16.979659283788948
30
0
0
LWPOLYLINE
5
132
100
AcDbEntity
8
0
100
AcDbPolyline
90
4
70
1
43
0.0
10
-17.835218660862509
20
-29.066582091571355
42
0.99999999999999989
10
-17.835218660862516
20
-28.511847839348885
10
-18.980476471902442
20
-28.511847839348885
42
0.99999999999999989
10
-18.980476471902438
20
-29.066582091571355
0
LWPOLYLINE
5
133
100
AcDbEntity
8
0
100
AcDbPolyline
90
4
70
1
43
0.0
10
24.15196561325228
20
-10.592780272721658
42
0.93987932868216362
10
25.487577834108535
20
-11.061773876991793
10
26.824701437515067
20
-6.3359095382343522
42
0.94357296075840302
10
25.487577834108535
20
-5.8722576906113622
0
LWPOLYLINE
5
134
100
AcDbEntity
8
0
100
AcDbPolyline
90
4
70
1
43
0.0
10
4.1879659252785109
20
-5.8345634137114537
42
0.885531452936131
10
2.6713711733992302
20
-5.532967866462732
10
2.2146693447083106
20
-10.556687982062849
42
0.96302852364231595
10
3.8174342529443694
20
-10.763496357319113
0
CIRCLE
5
135
100
AcDbEntity
8
0
100
AcDbCircle
10
27.964347037343948
20
-23.877207748408836
30
0
40
0.63961387399568359
210
0
220
-0
230
1
0
CIRCLE
5
136
100
AcDbEntity
8
0
100
AcDbCircle
10
29.811819708249658
20
-25.963545572724577
30
0
40
0.5021253081133058
210
0
220
-0
230
1
0
CIRCLE
5
137
100
AcDbEntity
8
0
100
AcDbCircle
10
34.103927933586164
20
-24.799077949850673
30
0
40
0.52499096116382926
210
0
220
-0
230
1
0
CIRCLE
5
138
100
AcDbEntity
8
0
100
AcDbCircle
10
34.682429477001072
20
-22.03346734552516
30
0
40
0.65403138568185692
210
0
220
-0
230
1
0
LWPOLYLINE
5
139
100
AcDbEntity
8
0
100
AcDbPolyline
90
4
70
1
43
0.0
10
33.242773008513957
20
-8.2384371229801445
42
0.78227287782650323
10
33.127229680165037
20
-6.2279832097089605
10
30.723928450507536
20
-6.2279832097089649
42
0.73816398739049316
10
30.824066001743269
20
-8.2384371229801445
0
LWPOLYLINE
5
140
100
AcDbEntity
8
0
100
AcDbPolyline
90
68
70
1
43
0.0
10
52.859070700085041
20
0.41013141660148744
42
0.37012518912270909
10
54.195172964744806
20
1.9181145788933835
10
54.418805902883463
20
15.844347544800762
42
0.27417769957577254
10
53.849558423985059
20
16.840530632872969
10
49.17359699017674
20
18.58893360377521
42
-0.27097824942049048
10
48.543358709967784
20
19.666437760261481
10
48.543358709967784
20
24.578371117800305
42
0.28374812531655758
10
47.319627975148933
20
25.777783526623786
10
23.599644017442127
20
25.777783526623793
42
0.21520517737930409
10
22.441224730608301
20
24.578371117800305
10
22.339510166134477
20
20.413815825455565
42
-0.31744394263854014
10
21.175240324910696
20
19.271308037338777
10
16.89899688938787
20
19.271308037338773
42
-0.33703341186560559
10
15.593273702968709
20
20.620555329971936
10
15.593273702968709
20
24.428914623694556
42
0.33235512365701431
10
14.235321589092759
20
25.77489760836167
10
5.9407150473648818
20
25.77489760836167
42
0.23177970850521798
10
4.8874316769867407
20
24.566015558268571
10
4.8874316769867416
20
20.532419014888635
42
-0.3056176349614258
10
3.5349200763875293
20
19.275660447960171
10
-0.69018253433388577
20
19.275660447960171
42
-0.3561863713524509
10
-1.9948176180977226
20
20.652110306977065
10
-1.994817618097722
20
24.518139041433201
42
0.33191468104722127
10
-3.2396070558173475
20
25.762928479152819
10
-26.543501625433763
20
25.762928479152819
42
0.33556896032710121
10
-27.967828001286023
20
24.68570685035699
10
-27.967828001286019
20
19.574888678181225
42
-0.19493433839807389
10
-28.85354356274037
20
18.509636178594242
10
-33.174399207132524
20
16.917741993818186
42
0.19635931411048918
10
-33.964361734916139
20
15.840520365022357
10
-33.964361734916139
20
4.4284583678177691
42
-0.31452617622530787
10
-35.132746748692732
20
3.3105837344713613
42
0.32118583945053208
10
-36.593428842155241
20
2.1947315983467393
10
-36.593428842155234
20
-5.4924296669031669
42
0.22882575766689356
10
-35.65129970210311
20
-6.5479097296412325
42
-0.24034010954188023
10
-30.782623245638536
20
-12.248051900910275
10
-30.782623245638536
20
-16.43577618728159
42
-0.20646031331389469
10
-34.438553727340647
20
-21.548421090973598
42
0.19430417487957377
10
-35.090621597675863
20
-22.416677452673518
10
-35.090621597675863
20
-25.981163398775472
42
0.29514014828200241
10
-32.116571973934363
20
-28.867740974759872
10
-22.833600905711794
20
-30.715587983628673
42
0.058919207438642186
10
-22.07349712977804
20
-30.775598510012614
10
-20.162396459014637
20
-30.775598510012614
42
-0.31982000360802415
10
-18.645137480536938
20
-31.989405692794776
10
-18.645137480536938
20
-34.061916893183465
42
0.28167245559543203
10
-17.554002300270003
20
-35.372570393740787
10
-11.646376915984503
20
-35.372570393740787
42
-0.20708373980778927
10
-10.556348653263342
20
-35.954242968036084
42
0.19276898846328788
10
-9.21230612923517
20
-36.876916529848465
10
1.2858347175934859
20
-36.876916529848465
42
-0.21897180970730962
10
2.2542978953452062
20
-37.32240959161426
10
3.7005362407877773
20
-39.433659319113012
42
0.17911321217869919
10
4.6496301549844627
20
-40.10512712235419
10
15.25753016195832
20
-40.10512712235419
42
0.18038379991638925
10
16.416760831025826
20
-39.433659319113012
10
17.643619224300735
20
-37.584331979518602
42
-0.16598674341002989
10
18.547620145661199
20
-36.888394762280782
10
29.137345224455178
20
-36.888394762280782
42
0.20959953109321122
10
30.07004458776359
20
-36.479441964522479
10
30.801854857436346
20
-35.80502857874562
42
-0.072207457099681405
10
31.461919022239222
20
-35.353028118065396
10
37.302051958647283
20
-35.353028118065396
42
0.32363149185102857
10
38.708275614096891
20
-34.090296672355549
10
38.808315838893762
20
-24.434900341608454
42
0.086040613429008511
10
38.708275614096891
20
-23.820067680838708
10
35.409824328539159
20
-17.795687583614665
42
-0.50553026807192125
10
46.617829575991578
20
0.41013141660148689
0
ENDSEC
0
SECTION
2
OBJECTS
0
DICTIONARY
5
C
100
AcDbDictionary
3
ACAD_GROUP
350
D
3
ACAD_MLINESTYLE
350
17
0
DICTIONARY
5
D
100
AcDbDictionary
0
DICTIONARY
5
1A
330
C
100
AcDbDictionary
0
DICTIONARY
5
17
100
AcDbDictionary
0
ENDSEC
0
EOF
